<svg xmlns="http://www.w3.org/2000/svg" viewBox="0 0 48 48" width="192" height="192">
<defs>

</defs>
<circle cx="24" cy="22" r="16" fill="#fff4c8" opacity=".55"/><svg x="12" y="10" width="24" height="26" viewBox="-14 -16 28 30" fill="#f4efe4" stroke="#6b5a3a" stroke-width="1"><path d="M0-15a5.4 5.4 0 1 1 0 10.8A5.4 5.4 0 1 1 0-15zM-3.6-4.4h7.2c3 0 9.8 1 9.8 4.2 0 2.2-3.8 2.8-5.8 3.2L11.8 12h-8L0 6.6-3.8 12h-8L-8.4 3C-10.4 2.6-13.4 2-13.4-.2c0-3.2 6.8-4.2 9.8-4.2z"/></svg><path d="M8 42h32" stroke="#6b4a2a" stroke-width="2.4" stroke-linecap="round"/><path d="M24 2v6M10 8l4 4M38 8l-4 4" stroke="#ffd98a" stroke-width="2" stroke-linecap="round"/>
</svg>
